<svg width="99" height="16" viewBox="0 0 99 16" fill="none" xmlns="http://www.w3.org/2000/svg">
<path d="M5.615 15.189C4.523 15.189 3.634 15.021 2.948 14.685C2.262 14.349 1.73 13.866 1.352 13.236C0.974 12.592 0.708 11.808 0.554 10.884C0.414 9.96 0.344 8.91 0.344 7.734C0.344 6.558 0.414 5.508 0.554 4.584C0.694 3.646 0.946 2.848 1.31 2.19C1.688 1.532 2.22 1.028 2.906 0.677999C3.592 0.327999 4.495 0.153 5.615 0.153C6.105 0.153 6.588 0.181 7.064 0.237C7.554 0.278999 8.009 0.327999 8.429 0.383999C8.849 0.439999 9.22 0.502999 9.542 0.572999L9.479 1.539C9.171 1.469 8.793 1.406 8.345 1.35C7.911 1.28 7.456 1.224 6.98 1.182C6.518 1.14 6.084 1.119 5.678 1.119C4.754 1.119 4.005 1.266 3.431 1.56C2.871 1.854 2.444 2.288 2.15 2.862C1.87 3.436 1.681 4.129 1.583 4.941C1.485 5.753 1.436 6.684 1.436 7.734C1.436 8.77 1.485 9.694 1.583 10.506C1.695 11.304 1.891 11.983 2.171 12.543C2.465 13.089 2.892 13.509 3.452 13.803C4.012 14.083 4.754 14.223 5.678 14.223C6.308 14.223 6.966 14.181 7.652 14.097C8.338 14.013 8.947 13.922 9.479 13.824L9.542 14.769C9.192 14.839 8.8 14.909 8.366 14.979C7.946 15.035 7.498 15.084 7.022 15.126C6.546 15.168 6.077 15.189 5.615 15.189ZM13.7194 15L18.0664 0.362999H20.7334L25.0804 15H24.0304L22.7704 10.758H16.0294L14.7694 15H13.7194ZM16.3024 9.792H22.4974L19.9774 1.308H18.8224L16.3024 9.792ZM30.2206 15V0.362999H35.5336C36.5276 0.362999 37.3536 0.509999 38.0116 0.803999C38.6836 1.098 39.1806 1.56 39.5026 2.19C39.8386 2.82 40.0066 3.632 40.0066 4.626C40.0066 5.732 39.7756 6.663 39.3136 7.419C38.8656 8.175 38.1236 8.672 37.0876 8.91L40.2376 15H39.0406L35.9956 9.099H31.2706V15H30.2206ZM31.2706 8.133H35.5546C36.3946 8.133 37.0526 7.986 37.5286 7.692C38.0186 7.384 38.3686 6.971 38.5786 6.453C38.8026 5.921 38.9146 5.312 38.9146 4.626C38.9146 3.478 38.6416 2.638 38.0956 2.106C37.5496 1.574 36.6956 1.308 35.5336 1.308H31.2706V8.133ZM45.85 15V0.362999H54.544V1.329H46.9V7.062H53.284V8.007H46.9V14.034H54.544V15H45.85ZM60.1669 15V0.362999H68.8609V1.329H61.2169V7.062H67.6009V8.007H61.2169V14.034H68.8609V15H60.1669ZM74.4838 15V0.362999H79.7968C80.7908 0.362999 81.6168 0.509999 82.2748 0.803999C82.9468 1.098 83.4438 1.56 83.7658 2.19C84.1018 2.82 84.2698 3.632 84.2698 4.626C84.2698 5.732 84.0388 6.663 83.5768 7.419C83.1288 8.175 82.3868 8.672 81.3508 8.91L84.5008 15H83.3038L80.2588 9.099H75.5338V15H74.4838ZM75.5338 8.133H79.8178C80.6578 8.133 81.3158 7.986 81.7918 7.692C82.2818 7.384 82.6318 6.971 82.8418 6.453C83.0658 5.921 83.1778 5.312 83.1778 4.626C83.1778 3.478 82.9048 2.638 82.3588 2.106C81.8128 1.574 80.9588 1.308 79.7968 1.308H75.5338V8.133ZM93.9983 15.168C93.6063 15.168 93.1303 15.147 92.5703 15.105C92.0243 15.063 91.4713 15.014 90.9113 14.958C90.3653 14.888 89.8823 14.832 89.4623 14.79L89.5673 13.845C89.9873 13.887 90.4633 13.936 90.9953 13.992C91.5413 14.048 92.0803 14.097 92.6123 14.139C93.1443 14.181 93.5923 14.202 93.9563 14.202C95.1043 14.202 95.9653 13.943 96.5393 13.425C97.1273 12.893 97.4213 12.025 97.4213 10.821C97.4213 10.163 97.3023 9.652 97.0643 9.288C96.8263 8.91 96.4483 8.63 95.9303 8.448C95.4263 8.252 94.7543 8.084 93.9143 7.944C92.9343 7.776 92.1013 7.573 91.4153 7.335C90.7433 7.083 90.2323 6.691 89.8823 6.159C89.5323 5.627 89.3573 4.871 89.3573 3.891C89.3573 2.967 89.5463 2.232 89.9243 1.686C90.3023 1.14 90.8343 0.747999 91.5203 0.509999C92.2063 0.258 93.0183 0.132 93.9563 0.132C94.3483 0.132 94.8033 0.153 95.3213 0.194999C95.8533 0.223 96.3713 0.264999 96.8753 0.320999C97.3933 0.376999 97.8343 0.432999 98.1983 0.488999L98.0933 1.434C97.6873 1.378 97.2183 1.329 96.6863 1.287C96.1543 1.231 95.6433 1.182 95.1533 1.14C94.6773 1.098 94.2923 1.077 93.9983 1.077C92.8503 1.077 91.9683 1.294 91.3523 1.728C90.7503 2.162 90.4493 2.862 90.4493 3.828C90.4493 4.612 90.5823 5.2 90.8483 5.592C91.1283 5.97 91.5483 6.25 92.1083 6.432C92.6683 6.614 93.3823 6.789 94.2503 6.957C94.9643 7.083 95.5873 7.23 96.1193 7.398C96.6513 7.566 97.0923 7.79 97.4423 8.07C97.7923 8.336 98.0583 8.686 98.2403 9.12C98.4223 9.54 98.5133 10.079 98.5133 10.737C98.5133 11.815 98.3383 12.683 97.9883 13.341C97.6383 13.985 97.1203 14.454 96.4343 14.748C95.7623 15.028 94.9503 15.168 93.9983 15.168Z" fill="black"/>
</svg>
