<svg width="382" height="57" viewBox="0 0 382 57" fill="none" xmlns="http://www.w3.org/2000/svg">
<path d="M0.546 35L4.893 20.363H7.56L11.907 35H10.857L9.597 30.758H2.856L1.596 35H0.546ZM3.129 29.792H9.324L6.804 21.308H5.649L3.129 29.792ZM17.0472 35V20.363H22.1712C23.1232 20.363 23.9142 20.496 24.5442 20.762C25.1742 21.014 25.6502 21.413 25.9722 21.959C26.2942 22.491 26.4552 23.177 26.4552 24.017C26.4552 24.675 26.3712 25.235 26.2032 25.697C26.0352 26.145 25.8042 26.509 25.5102 26.789C25.2162 27.069 24.8732 27.293 24.4812 27.461C24.9012 27.573 25.3002 27.762 25.6782 28.028C26.0702 28.294 26.3852 28.665 26.6232 29.141C26.8612 29.603 26.9802 30.205 26.9802 30.947C26.9802 31.731 26.8752 32.389 26.6652 32.921C26.4552 33.439 26.1472 33.852 25.7412 34.16C25.3492 34.454 24.8802 34.671 24.3342 34.811C23.8022 34.937 23.2002 35 22.5282 35H17.0472ZM18.0972 34.055H22.5072C23.1792 34.055 23.7672 33.964 24.2712 33.782C24.7892 33.586 25.1882 33.264 25.4682 32.816C25.7622 32.368 25.9092 31.738 25.9092 30.926C25.9092 30.24 25.7762 29.701 25.5102 29.309C25.2442 28.917 24.9152 28.63 24.5232 28.448C24.1452 28.252 23.7602 28.133 23.3682 28.091C22.9762 28.035 22.6402 28.007 22.3602 28.007H18.0972V34.055ZM18.0972 27.062H22.3602C23.4242 27.062 24.1942 26.81 24.6702 26.306C25.1462 25.802 25.3842 25.053 25.3842 24.059C25.3842 23.093 25.1182 22.393 24.5862 21.959C24.0542 21.525 23.2422 21.308 22.1502 21.308H18.0972V27.062ZM37.8617 35.189C36.3497 35.189 35.1807 34.909 34.3547 34.349C33.5427 33.789 32.9757 32.956 32.6537 31.85C32.3457 30.73 32.1917 29.365 32.1917 27.755C32.1917 26.145 32.3527 24.78 32.6747 23.66C32.9967 22.526 33.5637 21.658 34.3757 21.056C35.2017 20.454 36.3637 20.153 37.8617 20.153C39.3597 20.153 40.5147 20.454 41.3267 21.056C42.1527 21.644 42.7267 22.505 43.0487 23.639C43.3707 24.773 43.5317 26.145 43.5317 27.755C43.5317 29.435 43.3707 30.828 43.0487 31.934C42.7407 33.026 42.1737 33.845 41.3477 34.391C40.5357 34.923 39.3737 35.189 37.8617 35.189ZM37.8617 34.244C39.1357 34.244 40.0947 34.013 40.7387 33.551C41.3967 33.075 41.8447 32.361 42.0827 31.409C42.3207 30.443 42.4397 29.225 42.4397 27.755C42.4397 26.341 42.3137 25.144 42.0617 24.164C41.8237 23.17 41.3757 22.414 40.7177 21.896C40.0597 21.378 39.1077 21.119 37.8617 21.119C36.6017 21.119 35.6427 21.378 34.9847 21.896C34.3407 22.414 33.8927 23.163 33.6407 24.143C33.4027 25.123 33.2837 26.327 33.2837 27.755C33.2837 29.169 33.4027 30.359 33.6407 31.325C33.8787 32.291 34.3197 33.019 34.9637 33.509C35.6217 33.999 36.5877 34.244 37.8617 34.244ZM54.201 35.189C53.193 35.189 52.325 35.049 51.597 34.769C50.883 34.475 50.33 34.013 49.938 33.383C49.546 32.739 49.35 31.871 49.35 30.779V20.363H50.4V30.8C50.4 32.046 50.736 32.935 51.408 33.467C52.094 33.985 53.025 34.244 54.201 34.244C55.461 34.244 56.434 33.985 57.12 33.467C57.82 32.949 58.17 32.06 58.17 30.8V20.363H59.22V30.779C59.22 31.857 59.024 32.718 58.632 33.362C58.24 34.006 57.666 34.475 56.91 34.769C56.168 35.049 55.265 35.189 54.201 35.189ZM68.7466 35V21.329H64.0006V20.363H74.5006V21.329H69.7966V35H68.7466ZM91.4916 35.189C90.4836 35.189 89.6156 35.049 88.8876 34.769C88.1736 34.475 87.6206 34.013 87.2286 33.383C86.8366 32.739 86.6406 31.871 86.6406 30.779V20.363H87.6906V30.8C87.6906 32.046 88.0266 32.935 88.6986 33.467C89.3846 33.985 90.3156 34.244 91.4916 34.244C92.7516 34.244 93.7246 33.985 94.4106 33.467C95.1106 32.949 95.4606 32.06 95.4606 30.8V20.363H96.5106V30.779C96.5106 31.857 96.3146 32.718 95.9226 33.362C95.5306 34.006 94.9566 34.475 94.2006 34.769C93.4586 35.049 92.5556 35.189 91.4916 35.189ZM106.772 35.168C106.38 35.168 105.904 35.147 105.344 35.105C104.798 35.063 104.245 35.014 103.685 34.958C103.139 34.888 102.656 34.832 102.236 34.79L102.341 33.845C102.761 33.887 103.237 33.936 103.769 33.992C104.315 34.048 104.854 34.097 105.386 34.139C105.918 34.181 106.366 34.202 106.73 34.202C107.878 34.202 108.739 33.943 109.313 33.425C109.901 32.893 110.195 32.025 110.195 30.821C110.195 30.163 110.076 29.652 109.838 29.288C109.6 28.91 109.222 28.63 108.704 28.448C108.2 28.252 107.528 28.084 106.688 27.944C105.708 27.776 104.875 27.573 104.189 27.335C103.517 27.083 103.006 26.691 102.656 26.159C102.306 25.627 102.131 24.871 102.131 23.891C102.131 22.967 102.32 22.232 102.698 21.686C103.076 21.14 103.608 20.748 104.294 20.51C104.98 20.258 105.792 20.132 106.73 20.132C107.122 20.132 107.577 20.153 108.095 20.195C108.627 20.223 109.145 20.265 109.649 20.321C110.167 20.377 110.608 20.433 110.972 20.489L110.867 21.434C110.461 21.378 109.992 21.329 109.46 21.287C108.928 21.231 108.417 21.182 107.927 21.14C107.451 21.098 107.066 21.077 106.772 21.077C105.624 21.077 104.742 21.294 104.126 21.728C103.524 22.162 103.223 22.862 103.223 23.828C103.223 24.612 103.356 25.2 103.622 25.592C103.902 25.97 104.322 26.25 104.882 26.432C105.442 26.614 106.156 26.789 107.024 26.957C107.738 27.083 108.361 27.23 108.893 27.398C109.425 27.566 109.866 27.79 110.216 28.07C110.566 28.336 110.832 28.686 111.014 29.12C111.196 29.54 111.287 30.079 111.287 30.737C111.287 31.815 111.112 32.683 110.762 33.341C110.412 33.985 109.894 34.454 109.208 34.748C108.536 35.028 107.724 35.168 106.772 35.168Z" fill="black"/>
<g filter="url(#filter0_bdi_2356_496)">
<rect x="147" width="233" height="55" rx="13" fill="#EEFEFF"/>
<rect x="147.5" y="0.5" width="232" height="54" rx="12.5" stroke="#004C6D"/>
</g>
<path d="M192.198 35.252C191.064 35.252 190.126 35.119 189.384 34.853C188.642 34.587 188.054 34.167 187.62 33.593C187.186 33.005 186.878 32.242 186.696 31.304C186.514 30.366 186.423 29.225 186.423 27.881C186.423 26.537 186.514 25.403 186.696 24.479C186.878 23.541 187.186 22.785 187.62 22.211C188.054 21.623 188.649 21.196 189.405 20.93C190.175 20.65 191.148 20.51 192.324 20.51C192.758 20.51 193.227 20.538 193.731 20.594C194.249 20.65 194.753 20.72 195.243 20.804C195.733 20.888 196.16 20.972 196.524 21.056L196.419 23.975C196.167 23.933 195.838 23.891 195.432 23.849C195.04 23.807 194.634 23.772 194.214 23.744C193.794 23.716 193.395 23.702 193.017 23.702C192.443 23.702 191.967 23.772 191.589 23.912C191.225 24.038 190.938 24.262 190.728 24.584C190.532 24.892 190.399 25.312 190.329 25.844C190.259 26.376 190.224 27.055 190.224 27.881C190.224 28.693 190.259 29.372 190.329 29.918C190.399 30.45 190.532 30.877 190.728 31.199C190.938 31.507 191.225 31.731 191.589 31.871C191.967 31.997 192.45 32.06 193.038 32.06C193.598 32.06 194.2 32.039 194.844 31.997C195.502 31.941 196.041 31.892 196.461 31.85L196.524 34.748C196.202 34.818 195.803 34.895 195.327 34.979C194.851 35.063 194.34 35.126 193.794 35.168C193.248 35.224 192.716 35.252 192.198 35.252ZM208.433 35.252C206.907 35.252 205.675 34.993 204.737 34.475C203.813 33.943 203.134 33.138 202.7 32.06C202.28 30.968 202.07 29.589 202.07 27.923C202.07 26.243 202.28 24.857 202.7 23.765C203.12 22.673 203.799 21.861 204.737 21.329C205.675 20.783 206.907 20.51 208.433 20.51C209.973 20.51 211.205 20.783 212.129 21.329C213.067 21.861 213.746 22.673 214.166 23.765C214.586 24.857 214.796 26.243 214.796 27.923C214.796 29.603 214.586 30.989 214.166 32.081C213.746 33.159 213.074 33.957 212.15 34.475C211.226 34.993 209.987 35.252 208.433 35.252ZM208.433 32.165C209.175 32.165 209.728 32.011 210.092 31.703C210.456 31.381 210.701 30.905 210.827 30.275C210.953 29.631 211.016 28.847 211.016 27.923C211.016 26.985 210.953 26.194 210.827 25.55C210.701 24.906 210.456 24.423 210.092 24.101C209.728 23.765 209.175 23.597 208.433 23.597C207.719 23.597 207.173 23.765 206.795 24.101C206.431 24.423 206.186 24.906 206.06 25.55C205.934 26.194 205.871 26.985 205.871 27.923C205.871 28.833 205.934 29.61 206.06 30.254C206.186 30.884 206.431 31.36 206.795 31.682C207.159 32.004 207.705 32.165 208.433 32.165ZM220.866 35V20.783H225.066L229.098 28.847H229.434V20.783H233.172V35H228.972L224.961 26.684H224.604V35H220.866ZM242.256 35V23.87H238.812V20.783H249.312V23.87H245.994V35H242.256ZM254.068 35L257.491 20.783H263.518L266.962 35H263.203L262.573 32.648H258.331L257.743 35H254.068ZM258.856 29.729H262.132L260.872 23.744H260.158L258.856 29.729ZM277.925 35.252C276.791 35.252 275.853 35.119 275.111 34.853C274.369 34.587 273.781 34.167 273.347 33.593C272.913 33.005 272.605 32.242 272.423 31.304C272.241 30.366 272.15 29.225 272.15 27.881C272.15 26.537 272.241 25.403 272.423 24.479C272.605 23.541 272.913 22.785 273.347 22.211C273.781 21.623 274.376 21.196 275.132 20.93C275.902 20.65 276.875 20.51 278.051 20.51C278.485 20.51 278.954 20.538 279.458 20.594C279.976 20.65 280.48 20.72 280.97 20.804C281.46 20.888 281.887 20.972 282.251 21.056L282.146 23.975C281.894 23.933 281.565 23.891 281.159 23.849C280.767 23.807 280.361 23.772 279.941 23.744C279.521 23.716 279.122 23.702 278.744 23.702C278.17 23.702 277.694 23.772 277.316 23.912C276.952 24.038 276.665 24.262 276.455 24.584C276.259 24.892 276.126 25.312 276.056 25.844C275.986 26.376 275.951 27.055 275.951 27.881C275.951 28.693 275.986 29.372 276.056 29.918C276.126 30.45 276.259 30.877 276.455 31.199C276.665 31.507 276.952 31.731 277.316 31.871C277.694 31.997 278.177 32.06 278.765 32.06C279.325 32.06 279.927 32.039 280.571 31.997C281.229 31.941 281.768 31.892 282.188 31.85L282.251 34.748C281.929 34.818 281.53 34.895 281.054 34.979C280.578 35.063 280.067 35.126 279.521 35.168C278.975 35.224 278.443 35.252 277.925 35.252ZM290.821 35V23.87H287.377V20.783H297.877V23.87H294.559V35H290.821ZM318.232 35.252C316.972 35.252 315.908 35.098 315.04 34.79C314.186 34.468 313.535 33.936 313.087 33.194C312.653 32.452 312.436 31.444 312.436 30.17V20.783H316.174V30.317C316.174 30.961 316.342 31.43 316.678 31.724C317.028 32.004 317.546 32.144 318.232 32.144C318.946 32.144 319.471 32.004 319.807 31.724C320.143 31.43 320.311 30.961 320.311 30.317V20.783H324.049V30.128C324.049 31.388 323.825 32.396 323.377 33.152C322.943 33.908 322.292 34.447 321.424 34.769C320.57 35.091 319.506 35.252 318.232 35.252ZM335.507 35.252C334.891 35.252 334.24 35.217 333.554 35.147C332.882 35.077 332.238 34.993 331.622 34.895C331.006 34.783 330.488 34.685 330.068 34.601L330.257 31.724C330.705 31.766 331.223 31.822 331.811 31.892C332.413 31.962 333.015 32.025 333.617 32.081C334.219 32.123 334.744 32.144 335.192 32.144C335.836 32.144 336.291 32.039 336.557 31.829C336.837 31.605 336.977 31.269 336.977 30.821C336.977 30.569 336.921 30.373 336.809 30.233C336.697 30.079 336.48 29.953 336.158 29.855C335.85 29.743 335.402 29.638 334.814 29.54C333.61 29.33 332.651 29.064 331.937 28.742C331.223 28.42 330.712 27.972 330.404 27.398C330.096 26.81 329.942 26.04 329.942 25.088C329.942 23.884 330.152 22.953 330.572 22.295C331.006 21.637 331.615 21.175 332.399 20.909C333.183 20.643 334.114 20.51 335.192 20.51C335.696 20.51 336.263 20.538 336.893 20.594C337.537 20.65 338.16 20.713 338.762 20.783C339.378 20.853 339.91 20.93 340.358 21.014L340.211 23.954C339.791 23.912 339.294 23.87 338.72 23.828C338.16 23.772 337.593 23.723 337.019 23.681C336.445 23.639 335.941 23.618 335.507 23.618C334.877 23.618 334.422 23.702 334.142 23.87C333.862 24.038 333.722 24.311 333.722 24.689C333.722 24.969 333.785 25.193 333.911 25.361C334.037 25.515 334.254 25.648 334.562 25.76C334.884 25.858 335.339 25.977 335.927 26.117C336.837 26.313 337.6 26.516 338.216 26.726C338.832 26.936 339.322 27.195 339.686 27.503C340.064 27.811 340.337 28.21 340.505 28.7C340.673 29.176 340.757 29.792 340.757 30.548C340.757 31.696 340.554 32.62 340.148 33.32C339.742 34.006 339.147 34.503 338.363 34.811C337.579 35.105 336.627 35.252 335.507 35.252Z" fill="#004C6D"/>
<defs>
<filter id="filter0_bdi_2356_496" x="3" y="-144" width="521" height="343" filterUnits="userSpaceOnUse" color-interpolation-filters="sRGB">
<feFlood flood-opacity="0" result="BackgroundImageFix"/>
<feGaussianBlur in="BackgroundImageFix" stdDeviation="72"/>
<feComposite in2="SourceAlpha" operator="in" result="effect1_backgroundBlur_2356_496"/>
<feColorMatrix in="SourceAlpha" type="matrix" values="0 0 0 0 0 0 0 0 0 0 0 0 0 0 0 0 0 0 127 0" result="hardAlpha"/>
<feOffset dx="2" dy="2"/>
<feComposite in2="hardAlpha" operator="out"/>
<feColorMatrix type="matrix" values="0 0 0 0 0 0 0 0 0 0.298039 0 0 0 0 0.427451 0 0 0 1 0"/>
<feBlend mode="normal" in2="effect1_backgroundBlur_2356_496" result="effect2_dropShadow_2356_496"/>
<feBlend mode="normal" in="SourceGraphic" in2="effect2_dropShadow_2356_496" result="shape"/>
<feColorMatrix in="SourceAlpha" type="matrix" values="0 0 0 0 0 0 0 0 0 0 0 0 0 0 0 0 0 0 127 0" result="hardAlpha"/>
<feMorphology radius="2" operator="erode" in="SourceAlpha" result="effect3_innerShadow_2356_496"/>
<feOffset/>
<feGaussianBlur stdDeviation="2.5"/>
<feComposite in2="hardAlpha" operator="arithmetic" k2="-1" k3="1"/>
<feColorMatrix type="matrix" values="0 0 0 0 0.490196 0 0 0 0 0.976471 0 0 0 0 1 0 0 0 0.34 0"/>
<feBlend mode="normal" in2="shape" result="effect3_innerShadow_2356_496"/>
</filter>
</defs>
</svg>
