<svg width="320" height="49" viewBox="0 0 320 49" fill="none" xmlns="http://www.w3.org/2000/svg">
<path d="M19.8 23.4C19.9467 23.9867 20.02 24.72 20.02 25.6C20.02 26.4433 19.9467 27.1767 19.8 27.8C19.9467 28.3867 20.02 29.12 20.02 30C20.02 30.8433 19.9467 31.5767 19.8 32.2H17.6C17.7467 32.7867 17.82 33.52 17.82 34.4C17.82 35.2433 17.7467 35.9767 17.6 36.6H15.4C15.5467 37.1867 15.62 37.92 15.62 38.8C15.62 39.6433 15.5467 40.3767 15.4 41H2.2C2.05333 40.3767 1.98 39.6433 1.98 38.8C1.98 37.92 2.05333 37.1867 2.2 36.6C2.05333 35.9767 1.98 35.2433 1.98 34.4C1.98 33.52 2.05333 32.7867 2.2 32.2C2.05333 31.5767 1.98 30.8433 1.98 30C1.98 29.12 2.05333 28.3867 2.2 27.8C2.05333 27.1767 1.98 26.4433 1.98 25.6C1.98 24.72 2.05333 23.9867 2.2 23.4C2.05333 22.7767 1.98 22.0433 1.98 21.2C1.98 20.32 2.05333 19.5867 2.2 19C2.05333 18.3767 1.98 17.6433 1.98 16.8C1.98 15.92 2.05333 15.1867 2.2 14.6C2.05333 13.9767 1.98 13.2433 1.98 12.4C1.98 11.52 2.05333 10.7867 2.2 10.2H15.4C15.5467 10.7867 15.62 11.52 15.62 12.4C15.62 13.2433 15.5467 13.9767 15.4 14.6H17.6C17.7467 15.1867 17.82 15.92 17.82 16.8C17.82 17.6433 17.7467 18.3767 17.6 19H19.8C19.9467 19.5867 20.02 20.32 20.02 21.2C20.02 22.0433 19.9467 22.7767 19.8 23.4ZM15.4 32.2C15.2533 31.5767 15.18 30.8433 15.18 30C15.18 29.12 15.2533 28.3867 15.4 27.8C15.2533 27.1767 15.18 26.4433 15.18 25.6C15.18 24.72 15.2533 23.9867 15.4 23.4C15.2533 22.7767 15.18 22.0433 15.18 21.2C15.18 20.32 15.2533 19.5867 15.4 19H13.2C13.0533 18.3767 12.98 17.6433 12.98 16.8C12.98 15.92 13.0533 15.1867 13.2 14.6H6.6C6.74667 15.1867 6.82 15.92 6.82 16.8C6.82 17.6433 6.74667 18.3767 6.6 19C6.74667 19.5867 6.82 20.32 6.82 21.2C6.82 22.0433 6.74667 22.7767 6.6 23.4C6.74667 23.9867 6.82 24.72 6.82 25.6C6.82 26.4433 6.74667 27.1767 6.6 27.8C6.74667 28.3867 6.82 29.12 6.82 30C6.82 30.8433 6.74667 31.5767 6.6 32.2C6.74667 32.7867 6.82 33.52 6.82 34.4C6.82 35.2433 6.74667 35.9767 6.6 36.6H13.2C13.0533 35.9767 12.98 35.2433 12.98 34.4C12.98 33.52 13.0533 32.7867 13.2 32.2H15.4ZM44.7915 34.4C44.7915 35.2433 44.7182 35.9767 44.5715 36.6C44.7182 37.1867 44.7915 37.92 44.7915 38.8C44.7915 39.6433 44.7182 40.3767 44.5715 41H40.1715C40.0248 40.3767 39.9515 39.6433 39.9515 38.8C39.9515 37.92 40.0248 37.1867 40.1715 36.6C40.0248 35.9767 39.9515 35.2433 39.9515 34.4C39.9515 33.52 40.0248 32.7867 40.1715 32.2H31.3715C31.5182 32.7867 31.5915 33.52 31.5915 34.4C31.5915 35.2433 31.5182 35.9767 31.3715 36.6C31.5182 37.1867 31.5915 37.92 31.5915 38.8C31.5915 39.6433 31.5182 40.3767 31.3715 41H26.9715C26.8248 40.3767 26.7515 39.6433 26.7515 38.8C26.7515 37.92 26.8248 37.1867 26.9715 36.6C26.8248 35.9767 26.7515 35.2433 26.7515 34.4C26.7515 33.52 26.8248 32.7867 26.9715 32.2H28.6215C28.4748 31.5767 28.4015 30.8433 28.4015 30C28.4015 29.12 28.4748 28.3867 28.6215 27.8C28.4748 27.1767 28.4015 26.4433 28.4015 25.6C28.4015 24.72 28.4748 23.9867 28.6215 23.4H29.7215C29.5748 22.7767 29.5015 22.0433 29.5015 21.2C29.5015 20.32 29.5748 19.5867 29.7215 19H31.3715C31.2248 18.3767 31.1515 17.6433 31.1515 16.8C31.1515 15.92 31.2248 15.1867 31.3715 14.6H32.4715C32.3248 13.9767 32.2515 13.2433 32.2515 12.4C32.2515 11.52 32.3248 10.7867 32.4715 10.2H39.0715C39.2182 10.7867 39.2915 11.52 39.2915 12.4C39.2915 13.2433 39.2182 13.9767 39.0715 14.6H40.1715C40.3182 15.1867 40.3915 15.92 40.3915 16.8C40.3915 17.6433 40.3182 18.3767 40.1715 19H41.8215C41.9682 19.5867 42.0415 20.32 42.0415 21.2C42.0415 22.0433 41.9682 22.7767 41.8215 23.4H42.9215C43.0682 23.9867 43.1415 24.72 43.1415 25.6C43.1415 26.4433 43.0682 27.1767 42.9215 27.8C43.0682 28.3867 43.1415 29.12 43.1415 30C43.1415 30.8433 43.0682 31.5767 42.9215 32.2H44.5715C44.7182 32.7867 44.7915 33.52 44.7915 34.4ZM38.5215 27.8C38.3748 27.1767 38.3015 26.4433 38.3015 25.6C38.3015 24.72 38.3748 23.9867 38.5215 23.4H37.4215C37.2748 22.7767 37.2015 22.0433 37.2015 21.2C37.2015 20.32 37.2748 19.5867 37.4215 19H34.1215C34.2682 19.5867 34.3415 20.32 34.3415 21.2C34.3415 22.0433 34.2682 22.7767 34.1215 23.4H33.0215C33.1682 23.9867 33.2415 24.72 33.2415 25.6C33.2415 26.4433 33.1682 27.1767 33.0215 27.8H38.5215ZM69.563 12.4C69.563 13.2433 69.4896 13.9767 69.343 14.6H62.743C62.8896 15.1867 62.963 15.92 62.963 16.8C62.963 17.6433 62.8896 18.3767 62.743 19C62.8896 19.5867 62.963 20.32 62.963 21.2C62.963 22.0433 62.8896 22.7767 62.743 23.4C62.8896 23.9867 62.963 24.72 62.963 25.6C62.963 26.4433 62.8896 27.1767 62.743 27.8C62.8896 28.3867 62.963 29.12 62.963 30C62.963 30.8433 62.8896 31.5767 62.743 32.2C62.8896 32.7867 62.963 33.52 62.963 34.4C62.963 35.2433 62.8896 35.9767 62.743 36.6C62.8896 37.1867 62.963 37.92 62.963 38.8C62.963 39.6433 62.8896 40.3767 62.743 41H58.343C58.1963 40.3767 58.123 39.6433 58.123 38.8C58.123 37.92 58.1963 37.1867 58.343 36.6C58.1963 35.9767 58.123 35.2433 58.123 34.4C58.123 33.52 58.1963 32.7867 58.343 32.2C58.1963 31.5767 58.123 30.8433 58.123 30C58.123 29.12 58.1963 28.3867 58.343 27.8C58.1963 27.1767 58.123 26.4433 58.123 25.6C58.123 24.72 58.1963 23.9867 58.343 23.4C58.1963 22.7767 58.123 22.0433 58.123 21.2C58.123 20.32 58.1963 19.5867 58.343 19C58.1963 18.3767 58.123 17.6433 58.123 16.8C58.123 15.92 58.1963 15.1867 58.343 14.6H51.743C51.5963 13.9767 51.523 13.2433 51.523 12.4C51.523 11.52 51.5963 10.7867 51.743 10.2H69.343C69.4896 10.7867 69.563 11.52 69.563 12.4ZM94.3345 34.4C94.3345 35.2433 94.2611 35.9767 94.1145 36.6C94.2611 37.1867 94.3345 37.92 94.3345 38.8C94.3345 39.6433 94.2611 40.3767 94.1145 41H89.7145C89.5678 40.3767 89.4945 39.6433 89.4945 38.8C89.4945 37.92 89.5678 37.1867 89.7145 36.6C89.5678 35.9767 89.4945 35.2433 89.4945 34.4C89.4945 33.52 89.5678 32.7867 89.7145 32.2H80.9145C81.0611 32.7867 81.1345 33.52 81.1345 34.4C81.1345 35.2433 81.0611 35.9767 80.9145 36.6C81.0611 37.1867 81.1345 37.92 81.1345 38.8C81.1345 39.6433 81.0611 40.3767 80.9145 41H76.5145C76.3678 40.3767 76.2945 39.6433 76.2945 38.8C76.2945 37.92 76.3678 37.1867 76.5145 36.6C76.3678 35.9767 76.2945 35.2433 76.2945 34.4C76.2945 33.52 76.3678 32.7867 76.5145 32.2H78.1645C78.0178 31.5767 77.9445 30.8433 77.9445 30C77.9445 29.12 78.0178 28.3867 78.1645 27.8C78.0178 27.1767 77.9445 26.4433 77.9445 25.6C77.9445 24.72 78.0178 23.9867 78.1645 23.4H79.2645C79.1178 22.7767 79.0445 22.0433 79.0445 21.2C79.0445 20.32 79.1178 19.5867 79.2645 19H80.9145C80.7678 18.3767 80.6945 17.6433 80.6945 16.8C80.6945 15.92 80.7678 15.1867 80.9145 14.6H82.0145C81.8678 13.9767 81.7945 13.2433 81.7945 12.4C81.7945 11.52 81.8678 10.7867 82.0145 10.2H88.6145C88.7611 10.7867 88.8345 11.52 88.8345 12.4C88.8345 13.2433 88.7611 13.9767 88.6145 14.6H89.7145C89.8611 15.1867 89.9345 15.92 89.9345 16.8C89.9345 17.6433 89.8611 18.3767 89.7145 19H91.3645C91.5111 19.5867 91.5845 20.32 91.5845 21.2C91.5845 22.0433 91.5111 22.7767 91.3645 23.4H92.4645C92.6111 23.9867 92.6845 24.72 92.6845 25.6C92.6845 26.4433 92.6111 27.1767 92.4645 27.8C92.6111 28.3867 92.6845 29.12 92.6845 30C92.6845 30.8433 92.6111 31.5767 92.4645 32.2H94.1145C94.2611 32.7867 94.3345 33.52 94.3345 34.4ZM88.0645 27.8C87.9178 27.1767 87.8445 26.4433 87.8445 25.6C87.8445 24.72 87.9178 23.9867 88.0645 23.4H86.9645C86.8178 22.7767 86.7445 22.0433 86.7445 21.2C86.7445 20.32 86.8178 19.5867 86.9645 19H83.6645C83.8111 19.5867 83.8845 20.32 83.8845 21.2C83.8845 22.0433 83.8111 22.7767 83.6645 23.4H82.5645C82.7111 23.9867 82.7845 24.72 82.7845 25.6C82.7845 26.4433 82.7111 27.1767 82.5645 27.8H88.0645ZM118.886 14.6C119.033 15.1867 119.106 15.92 119.106 16.8C119.106 17.6433 119.033 18.3767 118.886 19C119.033 19.5867 119.106 20.32 119.106 21.2C119.106 22.0433 119.033 22.7767 118.886 23.4C119.033 23.9867 119.106 24.72 119.106 25.6C119.106 26.4433 119.033 27.1767 118.886 27.8C119.033 28.3867 119.106 29.12 119.106 30C119.106 30.8433 119.033 31.5767 118.886 32.2C119.033 32.7867 119.106 33.52 119.106 34.4C119.106 35.2433 119.033 35.9767 118.886 36.6C119.033 37.1867 119.106 37.92 119.106 38.8C119.106 39.6433 119.033 40.3767 118.886 41H114.486C114.339 40.3767 114.266 39.6433 114.266 38.8C114.266 37.92 114.339 37.1867 114.486 36.6H111.736C111.589 35.9767 111.516 35.2433 111.516 34.4C111.516 33.52 111.589 32.7867 111.736 32.2H110.086C109.939 31.5767 109.866 30.8433 109.866 30C109.866 29.12 109.939 28.3867 110.086 27.8H107.886C107.739 27.1767 107.666 26.4433 107.666 25.6C107.666 24.72 107.739 23.9867 107.886 23.4H105.686C105.833 23.9867 105.906 24.72 105.906 25.6C105.906 26.4433 105.833 27.1767 105.686 27.8C105.833 28.3867 105.906 29.12 105.906 30C105.906 30.8433 105.833 31.5767 105.686 32.2C105.833 32.7867 105.906 33.52 105.906 34.4C105.906 35.2433 105.833 35.9767 105.686 36.6C105.833 37.1867 105.906 37.92 105.906 38.8C105.906 39.6433 105.833 40.3767 105.686 41H101.286C101.139 40.3767 101.066 39.6433 101.066 38.8C101.066 37.92 101.139 37.1867 101.286 36.6C101.139 35.9767 101.066 35.2433 101.066 34.4C101.066 33.52 101.139 32.7867 101.286 32.2C101.139 31.5767 101.066 30.8433 101.066 30C101.066 29.12 101.139 28.3867 101.286 27.8C101.139 27.1767 101.066 26.4433 101.066 25.6C101.066 24.72 101.139 23.9867 101.286 23.4C101.139 22.7767 101.066 22.0433 101.066 21.2C101.066 20.32 101.139 19.5867 101.286 19C101.139 18.3767 101.066 17.6433 101.066 16.8C101.066 15.92 101.139 15.1867 101.286 14.6C101.139 13.9767 101.066 13.2433 101.066 12.4C101.066 11.52 101.139 10.7867 101.286 10.2H106.786C106.933 10.7867 107.006 11.52 107.006 12.4C107.006 13.2433 106.933 13.9767 106.786 14.6H108.436C108.583 15.1867 108.656 15.92 108.656 16.8C108.656 17.6433 108.583 18.3767 108.436 19H110.086C110.233 19.5867 110.306 20.32 110.306 21.2C110.306 22.0433 110.233 22.7767 110.086 23.4H112.286C112.433 23.9867 112.506 24.72 112.506 25.6C112.506 26.4433 112.433 27.1767 112.286 27.8H114.486C114.339 27.1767 114.266 26.4433 114.266 25.6C114.266 24.72 114.339 23.9867 114.486 23.4C114.339 22.7767 114.266 22.0433 114.266 21.2C114.266 20.32 114.339 19.5867 114.486 19C114.339 18.3767 114.266 17.6433 114.266 16.8C114.266 15.92 114.339 15.1867 114.486 14.6C114.339 13.9767 114.266 13.2433 114.266 12.4C114.266 11.52 114.339 10.7867 114.486 10.2H118.886C119.033 10.7867 119.106 11.52 119.106 12.4C119.106 13.2433 119.033 13.9767 118.886 14.6ZM132.657 27.8C132.804 28.3867 132.877 29.12 132.877 30C132.877 30.8433 132.804 31.5767 132.657 32.2C132.804 32.7867 132.877 33.52 132.877 34.4C132.877 35.2433 132.804 35.9767 132.657 36.6H141.457C141.604 37.1867 141.677 37.92 141.677 38.8C141.677 39.6433 141.604 40.3767 141.457 41H128.257C128.111 40.3767 128.037 39.6433 128.037 38.8C128.037 37.92 128.111 37.1867 128.257 36.6C128.111 35.9767 128.037 35.2433 128.037 34.4C128.037 33.52 128.111 32.7867 128.257 32.2C128.111 31.5767 128.037 30.8433 128.037 30C128.037 29.12 128.111 28.3867 128.257 27.8C128.111 27.1767 128.037 26.4433 128.037 25.6C128.037 24.72 128.111 23.9867 128.257 23.4C128.111 22.7767 128.037 22.0433 128.037 21.2C128.037 20.32 128.111 19.5867 128.257 19C128.111 18.3767 128.037 17.6433 128.037 16.8C128.037 15.92 128.111 15.1867 128.257 14.6C128.111 13.9767 128.037 13.2433 128.037 12.4C128.037 11.52 128.111 10.7867 128.257 10.2H141.457C141.604 10.7867 141.677 11.52 141.677 12.4C141.677 13.2433 141.604 13.9767 141.457 14.6H132.657C132.804 15.1867 132.877 15.92 132.877 16.8C132.877 17.6433 132.804 18.3767 132.657 19C132.804 19.5867 132.877 20.32 132.877 21.2C132.877 22.0433 132.804 22.7767 132.657 23.4H141.457C141.604 23.9867 141.677 24.72 141.677 25.6C141.677 26.4433 141.604 27.1767 141.457 27.8H132.657ZM168.649 12.4C168.649 13.2433 168.576 13.9767 168.429 14.6H161.829C161.976 15.1867 162.049 15.92 162.049 16.8C162.049 17.6433 161.976 18.3767 161.829 19C161.976 19.5867 162.049 20.32 162.049 21.2C162.049 22.0433 161.976 22.7767 161.829 23.4C161.976 23.9867 162.049 24.72 162.049 25.6C162.049 26.4433 161.976 27.1767 161.829 27.8C161.976 28.3867 162.049 29.12 162.049 30C162.049 30.8433 161.976 31.5767 161.829 32.2C161.976 32.7867 162.049 33.52 162.049 34.4C162.049 35.2433 161.976 35.9767 161.829 36.6C161.976 37.1867 162.049 37.92 162.049 38.8C162.049 39.6433 161.976 40.3767 161.829 41H157.429C157.282 40.3767 157.209 39.6433 157.209 38.8C157.209 37.92 157.282 37.1867 157.429 36.6C157.282 35.9767 157.209 35.2433 157.209 34.4C157.209 33.52 157.282 32.7867 157.429 32.2C157.282 31.5767 157.209 30.8433 157.209 30C157.209 29.12 157.282 28.3867 157.429 27.8C157.282 27.1767 157.209 26.4433 157.209 25.6C157.209 24.72 157.282 23.9867 157.429 23.4C157.282 22.7767 157.209 22.0433 157.209 21.2C157.209 20.32 157.282 19.5867 157.429 19C157.282 18.3767 157.209 17.6433 157.209 16.8C157.209 15.92 157.282 15.1867 157.429 14.6H150.829C150.682 13.9767 150.609 13.2433 150.609 12.4C150.609 11.52 150.682 10.7867 150.829 10.2H168.429C168.576 10.7867 168.649 11.52 168.649 12.4ZM189.9 36.6C190.047 37.1867 190.12 37.92 190.12 38.8C190.12 39.6433 190.047 40.3767 189.9 41H178.9C178.754 40.3767 178.68 39.6433 178.68 38.8C178.68 37.92 178.754 37.1867 178.9 36.6H182.2C182.054 35.9767 181.98 35.2433 181.98 34.4C181.98 33.52 182.054 32.7867 182.2 32.2C182.054 31.5767 181.98 30.8433 181.98 30C181.98 29.12 182.054 28.3867 182.2 27.8C182.054 27.1767 181.98 26.4433 181.98 25.6C181.98 24.72 182.054 23.9867 182.2 23.4C182.054 22.7767 181.98 22.0433 181.98 21.2C181.98 20.32 182.054 19.5867 182.2 19C182.054 18.3767 181.98 17.6433 181.98 16.8C181.98 15.92 182.054 15.1867 182.2 14.6H178.9C178.754 13.9767 178.68 13.2433 178.68 12.4C178.68 11.52 178.754 10.7867 178.9 10.2H189.9C190.047 10.7867 190.12 11.52 190.12 12.4C190.12 13.2433 190.047 13.9767 189.9 14.6H186.6C186.747 15.1867 186.82 15.92 186.82 16.8C186.82 17.6433 186.747 18.3767 186.6 19C186.747 19.5867 186.82 20.32 186.82 21.2C186.82 22.0433 186.747 22.7767 186.6 23.4C186.747 23.9867 186.82 24.72 186.82 25.6C186.82 26.4433 186.747 27.1767 186.6 27.8C186.747 28.3867 186.82 29.12 186.82 30C186.82 30.8433 186.747 31.5767 186.6 32.2C186.747 32.7867 186.82 33.52 186.82 34.4C186.82 35.2433 186.747 35.9767 186.6 36.6H189.9ZM217.972 32.2C218.119 32.7867 218.192 33.52 218.192 34.4C218.192 35.2433 218.119 35.9767 217.972 36.6H215.772C215.919 37.1867 215.992 37.92 215.992 38.8C215.992 39.6433 215.919 40.3767 215.772 41H204.772C204.625 40.3767 204.552 39.6433 204.552 38.8C204.552 37.92 204.625 37.1867 204.772 36.6H202.572C202.425 35.9767 202.352 35.2433 202.352 34.4C202.352 33.52 202.425 32.7867 202.572 32.2H200.372C200.225 31.5767 200.152 30.8433 200.152 30C200.152 29.12 200.225 28.3867 200.372 27.8C200.225 27.1767 200.152 26.4433 200.152 25.6C200.152 24.72 200.225 23.9867 200.372 23.4C200.225 22.7767 200.152 22.0433 200.152 21.2C200.152 20.32 200.225 19.5867 200.372 19H202.572C202.425 18.3767 202.352 17.6433 202.352 16.8C202.352 15.92 202.425 15.1867 202.572 14.6H204.772C204.625 13.9767 204.552 13.2433 204.552 12.4C204.552 11.52 204.625 10.7867 204.772 10.2H215.772C215.919 10.7867 215.992 11.52 215.992 12.4C215.992 13.2433 215.919 13.9767 215.772 14.6H217.972C218.119 15.1867 218.192 15.92 218.192 16.8C218.192 17.6433 218.119 18.3767 217.972 19H213.572C213.425 18.3767 213.352 17.6433 213.352 16.8C213.352 15.92 213.425 15.1867 213.572 14.6H206.972C207.119 15.1867 207.192 15.92 207.192 16.8C207.192 17.6433 207.119 18.3767 206.972 19H204.772C204.919 19.5867 204.992 20.32 204.992 21.2C204.992 22.0433 204.919 22.7767 204.772 23.4C204.919 23.9867 204.992 24.72 204.992 25.6C204.992 26.4433 204.919 27.1767 204.772 27.8C204.919 28.3867 204.992 29.12 204.992 30C204.992 30.8433 204.919 31.5767 204.772 32.2H206.972C207.119 32.7867 207.192 33.52 207.192 34.4C207.192 35.2433 207.119 35.9767 206.972 36.6H213.572C213.425 35.9767 213.352 35.2433 213.352 34.4C213.352 33.52 213.425 32.7867 213.572 32.2H217.972ZM242.743 27.8C242.89 28.3867 242.963 29.12 242.963 30C242.963 30.8433 242.89 31.5767 242.743 32.2C242.89 32.7867 242.963 33.52 242.963 34.4C242.963 35.2433 242.89 35.9767 242.743 36.6H240.543C240.69 37.1867 240.763 37.92 240.763 38.8C240.763 39.6433 240.69 40.3767 240.543 41H227.343C227.197 40.3767 227.123 39.6433 227.123 38.8C227.123 37.92 227.197 37.1867 227.343 36.6H225.143C224.997 35.9767 224.923 35.2433 224.923 34.4C224.923 33.52 224.997 32.7867 225.143 32.2H229.543C229.69 32.7867 229.763 33.52 229.763 34.4C229.763 35.2433 229.69 35.9767 229.543 36.6H238.343C238.197 35.9767 238.123 35.2433 238.123 34.4C238.123 33.52 238.197 32.7867 238.343 32.2C238.197 31.5767 238.123 30.8433 238.123 30C238.123 29.12 238.197 28.3867 238.343 27.8H227.343C227.197 27.1767 227.123 26.4433 227.123 25.6C227.123 24.72 227.197 23.9867 227.343 23.4H225.143C224.997 22.7767 224.923 22.0433 224.923 21.2C224.923 20.32 224.997 19.5867 225.143 19C224.997 18.3767 224.923 17.6433 224.923 16.8C224.923 15.92 224.997 15.1867 225.143 14.6H227.343C227.197 13.9767 227.123 13.2433 227.123 12.4C227.123 11.52 227.197 10.7867 227.343 10.2H240.543C240.69 10.7867 240.763 11.52 240.763 12.4C240.763 13.2433 240.69 13.9767 240.543 14.6H242.743C242.89 15.1867 242.963 15.92 242.963 16.8C242.963 17.6433 242.89 18.3767 242.743 19H238.343C238.197 18.3767 238.123 17.6433 238.123 16.8C238.123 15.92 238.197 15.1867 238.343 14.6H229.543C229.69 15.1867 229.763 15.92 229.763 16.8C229.763 17.6433 229.69 18.3767 229.543 19C229.69 19.5867 229.763 20.32 229.763 21.2C229.763 22.0433 229.69 22.7767 229.543 23.4H240.543C240.69 23.9867 240.763 24.72 240.763 25.6C240.763 26.4433 240.69 27.1767 240.543 27.8H242.743ZM292.506 34.4C292.506 35.2433 292.433 35.9767 292.286 36.6C292.433 37.1867 292.506 37.92 292.506 38.8C292.506 39.6433 292.433 40.3767 292.286 41H287.886C287.74 40.3767 287.666 39.6433 287.666 38.8C287.666 37.92 287.74 37.1867 287.886 36.6C287.74 35.9767 287.666 35.2433 287.666 34.4C287.666 33.52 287.74 32.7867 287.886 32.2H279.086C279.233 32.7867 279.306 33.52 279.306 34.4C279.306 35.2433 279.233 35.9767 279.086 36.6C279.233 37.1867 279.306 37.92 279.306 38.8C279.306 39.6433 279.233 40.3767 279.086 41H274.686C274.54 40.3767 274.466 39.6433 274.466 38.8C274.466 37.92 274.54 37.1867 274.686 36.6C274.54 35.9767 274.466 35.2433 274.466 34.4C274.466 33.52 274.54 32.7867 274.686 32.2H276.336C276.19 31.5767 276.116 30.8433 276.116 30C276.116 29.12 276.19 28.3867 276.336 27.8C276.19 27.1767 276.116 26.4433 276.116 25.6C276.116 24.72 276.19 23.9867 276.336 23.4H277.436C277.29 22.7767 277.216 22.0433 277.216 21.2C277.216 20.32 277.29 19.5867 277.436 19H279.086C278.94 18.3767 278.866 17.6433 278.866 16.8C278.866 15.92 278.94 15.1867 279.086 14.6H280.186C280.04 13.9767 279.966 13.2433 279.966 12.4C279.966 11.52 280.04 10.7867 280.186 10.2H286.786C286.933 10.7867 287.006 11.52 287.006 12.4C287.006 13.2433 286.933 13.9767 286.786 14.6H287.886C288.033 15.1867 288.106 15.92 288.106 16.8C288.106 17.6433 288.033 18.3767 287.886 19H289.536C289.683 19.5867 289.756 20.32 289.756 21.2C289.756 22.0433 289.683 22.7767 289.536 23.4H290.636C290.783 23.9867 290.856 24.72 290.856 25.6C290.856 26.4433 290.783 27.1767 290.636 27.8C290.783 28.3867 290.856 29.12 290.856 30C290.856 30.8433 290.783 31.5767 290.636 32.2H292.286C292.433 32.7867 292.506 33.52 292.506 34.4ZM286.236 27.8C286.09 27.1767 286.016 26.4433 286.016 25.6C286.016 24.72 286.09 23.9867 286.236 23.4H285.136C284.99 22.7767 284.916 22.0433 284.916 21.2C284.916 20.32 284.99 19.5867 285.136 19H281.836C281.983 19.5867 282.056 20.32 282.056 21.2C282.056 22.0433 281.983 22.7767 281.836 23.4H280.736C280.883 23.9867 280.956 24.72 280.956 25.6C280.956 26.4433 280.883 27.1767 280.736 27.8H286.236ZM313.758 36.6C313.904 37.1867 313.978 37.92 313.978 38.8C313.978 39.6433 313.904 40.3767 313.758 41H302.758C302.611 40.3767 302.538 39.6433 302.538 38.8C302.538 37.92 302.611 37.1867 302.758 36.6H306.058C305.911 35.9767 305.838 35.2433 305.838 34.4C305.838 33.52 305.911 32.7867 306.058 32.2C305.911 31.5767 305.838 30.8433 305.838 30C305.838 29.12 305.911 28.3867 306.058 27.8C305.911 27.1767 305.838 26.4433 305.838 25.6C305.838 24.72 305.911 23.9867 306.058 23.4C305.911 22.7767 305.838 22.0433 305.838 21.2C305.838 20.32 305.911 19.5867 306.058 19C305.911 18.3767 305.838 17.6433 305.838 16.8C305.838 15.92 305.911 15.1867 306.058 14.6H302.758C302.611 13.9767 302.538 13.2433 302.538 12.4C302.538 11.52 302.611 10.7867 302.758 10.2H313.758C313.904 10.7867 313.978 11.52 313.978 12.4C313.978 13.2433 313.904 13.9767 313.758 14.6H310.458C310.604 15.1867 310.678 15.92 310.678 16.8C310.678 17.6433 310.604 18.3767 310.458 19C310.604 19.5867 310.678 20.32 310.678 21.2C310.678 22.0433 310.604 22.7767 310.458 23.4C310.604 23.9867 310.678 24.72 310.678 25.6C310.678 26.4433 310.604 27.1767 310.458 27.8C310.604 28.3867 310.678 29.12 310.678 30C310.678 30.8433 310.604 31.5767 310.458 32.2C310.604 32.7867 310.678 33.52 310.678 34.4C310.678 35.2433 310.604 35.9767 310.458 36.6H313.758Z" fill="black"/>
</svg>
