<svg width="104" height="43" viewBox="0 0 104 43" fill="none" xmlns="http://www.w3.org/2000/svg">
<path d="M59 29L54 34L49 29" stroke="#004C6D" stroke-width="1.5" stroke-linecap="round" stroke-linejoin="round"/>
<path d="M1.869 17V2.363H2.919V17H1.869ZM9.39783 17V2.363H11.6238L18.1338 16.034H18.6378V2.363H19.6878V17H17.5038L10.9518 3.329H10.4478V17H9.39783ZM30.0607 17.168C29.6687 17.168 29.1927 17.147 28.6327 17.105C28.0867 17.063 27.5337 17.014 26.9737 16.958C26.4277 16.888 25.9447 16.832 25.5247 16.79L25.6297 15.845C26.0497 15.887 26.5257 15.936 27.0577 15.992C27.6037 16.048 28.1427 16.097 28.6747 16.139C29.2067 16.181 29.6547 16.202 30.0187 16.202C31.1667 16.202 32.0277 15.943 32.6017 15.425C33.1897 14.893 33.4837 14.025 33.4837 12.821C33.4837 12.163 33.3647 11.652 33.1267 11.288C32.8887 10.91 32.5107 10.63 31.9927 10.448C31.4887 10.252 30.8167 10.084 29.9767 9.944C28.9967 9.776 28.1637 9.573 27.4777 9.335C26.8057 9.083 26.2947 8.691 25.9447 8.159C25.5947 7.627 25.4197 6.871 25.4197 5.891C25.4197 4.967 25.6087 4.232 25.9867 3.686C26.3647 3.14 26.8967 2.748 27.5827 2.51C28.2687 2.258 29.0807 2.132 30.0187 2.132C30.4107 2.132 30.8657 2.153 31.3837 2.195C31.9157 2.223 32.4337 2.265 32.9377 2.321C33.4557 2.377 33.8967 2.433 34.2607 2.489L34.1557 3.434C33.7497 3.378 33.2807 3.329 32.7487 3.287C32.2167 3.231 31.7057 3.182 31.2157 3.14C30.7397 3.098 30.3547 3.077 30.0607 3.077C28.9127 3.077 28.0307 3.294 27.4147 3.728C26.8127 4.162 26.5117 4.862 26.5117 5.828C26.5117 6.612 26.6447 7.2 26.9107 7.592C27.1907 7.97 27.6107 8.25 28.1707 8.432C28.7307 8.614 29.4447 8.789 30.3127 8.957C31.0267 9.083 31.6497 9.23 32.1817 9.398C32.7137 9.566 33.1547 9.79 33.5047 10.07C33.8547 10.336 34.1207 10.686 34.3027 11.12C34.4847 11.54 34.5757 12.079 34.5757 12.737C34.5757 13.815 34.4007 14.683 34.0507 15.341C33.7007 15.985 33.1827 16.454 32.4967 16.748C31.8247 17.028 31.0127 17.168 30.0607 17.168ZM40.267 17V2.363H41.317V17H40.267ZM52.7728 17.189C51.6808 17.189 50.7778 17.021 50.0638 16.685C49.3498 16.349 48.7828 15.859 48.3628 15.215C47.9428 14.571 47.6488 13.787 47.4808 12.863C47.3128 11.939 47.2288 10.896 47.2288 9.734C47.2288 8.558 47.3128 7.508 47.4808 6.584C47.6488 5.646 47.9358 4.848 48.3418 4.19C48.7478 3.532 49.3078 3.028 50.0218 2.678C50.7358 2.328 51.6528 2.153 52.7728 2.153C53.3188 2.153 53.8788 2.181 54.4528 2.237C55.0408 2.293 55.5938 2.363 56.1118 2.447C56.6438 2.531 57.0848 2.615 57.4348 2.699L57.3718 3.644C56.9938 3.56 56.5388 3.483 56.0068 3.413C55.4748 3.329 54.9288 3.259 54.3688 3.203C53.8088 3.147 53.2978 3.119 52.8358 3.119C51.8978 3.119 51.1348 3.266 50.5468 3.56C49.9588 3.854 49.5038 4.288 49.1818 4.862C48.8598 5.436 48.6358 6.129 48.5098 6.941C48.3838 7.753 48.3208 8.684 48.3208 9.734C48.3208 11.12 48.4398 12.296 48.6778 13.262C48.9158 14.228 49.3568 14.97 50.0008 15.488C50.6448 15.992 51.5828 16.244 52.8148 16.244C53.1928 16.244 53.5988 16.223 54.0328 16.181C54.4808 16.139 54.9148 16.09 55.3348 16.034C55.7548 15.964 56.1048 15.908 56.3848 15.866V10.637H53.4868V9.671H57.4348V16.685C57.2388 16.727 56.9518 16.776 56.5738 16.832C56.1958 16.888 55.7758 16.944 55.3138 17C54.8658 17.056 54.4178 17.098 53.9698 17.126C53.5218 17.168 53.1228 17.189 52.7728 17.189ZM63.5073 17V2.363H64.5573V9.167H72.8733V2.363H73.9233V17H72.8733V10.133H64.5573V17H63.5073ZM83.5377 17V3.329H78.7917V2.363H89.2917V3.329H84.5877V17H83.5377ZM98.0564 17.168C97.6644 17.168 97.1884 17.147 96.6284 17.105C96.0824 17.063 95.5294 17.014 94.9694 16.958C94.4234 16.888 93.9404 16.832 93.5204 16.79L93.6254 15.845C94.0454 15.887 94.5214 15.936 95.0534 15.992C95.5994 16.048 96.1384 16.097 96.6704 16.139C97.2024 16.181 97.6504 16.202 98.0144 16.202C99.1624 16.202 100.023 15.943 100.597 15.425C101.185 14.893 101.479 14.025 101.479 12.821C101.479 12.163 101.36 11.652 101.122 11.288C100.884 10.91 100.506 10.63 99.9884 10.448C99.4844 10.252 98.8124 10.084 97.9724 9.944C96.9924 9.776 96.1594 9.573 95.4734 9.335C94.8014 9.083 94.2904 8.691 93.9404 8.159C93.5904 7.627 93.4154 6.871 93.4154 5.891C93.4154 4.967 93.6044 4.232 93.9824 3.686C94.3604 3.14 94.8924 2.748 95.5784 2.51C96.2644 2.258 97.0764 2.132 98.0144 2.132C98.4064 2.132 98.8614 2.153 99.3794 2.195C99.9114 2.223 100.429 2.265 100.933 2.321C101.451 2.377 101.892 2.433 102.256 2.489L102.151 3.434C101.745 3.378 101.276 3.329 100.744 3.287C100.212 3.231 99.7014 3.182 99.2114 3.14C98.7354 3.098 98.3504 3.077 98.0564 3.077C96.9084 3.077 96.0264 3.294 95.4104 3.728C94.8084 4.162 94.5074 4.862 94.5074 5.828C94.5074 6.612 94.6404 7.2 94.9064 7.592C95.1864 7.97 95.6064 8.25 96.1664 8.432C96.7264 8.614 97.4404 8.789 98.3084 8.957C99.0224 9.083 99.6454 9.23 100.177 9.398C100.709 9.566 101.15 9.79 101.5 10.07C101.85 10.336 102.116 10.686 102.298 11.12C102.48 11.54 102.571 12.079 102.571 12.737C102.571 13.815 102.396 14.683 102.046 15.341C101.696 15.985 101.178 16.454 100.492 16.748C99.8204 17.028 99.0084 17.168 98.0564 17.168Z" fill="black"/>
</svg>
