<svg width="107" height="43" viewBox="0 0 107 43" fill="none" xmlns="http://www.w3.org/2000/svg">
<path d="M5.754 17.168C5.362 17.168 4.886 17.147 4.326 17.105C3.78 17.063 3.227 17.014 2.667 16.958C2.121 16.888 1.638 16.832 1.218 16.79L1.323 15.845C1.743 15.887 2.219 15.936 2.751 15.992C3.297 16.048 3.836 16.097 4.368 16.139C4.9 16.181 5.348 16.202 5.712 16.202C6.86 16.202 7.721 15.943 8.295 15.425C8.883 14.893 9.177 14.025 9.177 12.821C9.177 12.163 9.058 11.652 8.82 11.288C8.582 10.91 8.204 10.63 7.686 10.448C7.182 10.252 6.51 10.084 5.67 9.944C4.69 9.776 3.857 9.573 3.171 9.335C2.499 9.083 1.988 8.691 1.638 8.159C1.288 7.627 1.113 6.871 1.113 5.891C1.113 4.967 1.302 4.232 1.68 3.686C2.058 3.14 2.59 2.748 3.276 2.51C3.962 2.258 4.774 2.132 5.712 2.132C6.104 2.132 6.559 2.153 7.077 2.195C7.609 2.223 8.127 2.265 8.631 2.321C9.149 2.377 9.59 2.433 9.954 2.489L9.849 3.434C9.443 3.378 8.974 3.329 8.442 3.287C7.91 3.231 7.399 3.182 6.909 3.14C6.433 3.098 6.048 3.077 5.754 3.077C4.606 3.077 3.724 3.294 3.108 3.728C2.506 4.162 2.205 4.862 2.205 5.828C2.205 6.612 2.338 7.2 2.604 7.592C2.884 7.97 3.304 8.25 3.864 8.432C4.424 8.614 5.138 8.789 6.006 8.957C6.72 9.083 7.343 9.23 7.875 9.398C8.407 9.566 8.848 9.79 9.198 10.07C9.548 10.336 9.814 10.686 9.996 11.12C10.178 11.54 10.269 12.079 10.269 12.737C10.269 13.815 10.094 14.683 9.744 15.341C9.394 15.985 8.876 16.454 8.19 16.748C7.518 17.028 6.706 17.168 5.754 17.168ZM15.9603 17V2.363H24.6543V3.329H17.0103V9.062H23.3943V10.007H17.0103V16.034H24.6543V17H15.9603ZM30.2772 17V2.363H35.5902C36.5842 2.363 37.4102 2.51 38.0682 2.804C38.7402 3.098 39.2372 3.56 39.5592 4.19C39.8952 4.82 40.0632 5.632 40.0632 6.626C40.0632 7.732 39.8322 8.663 39.3702 9.419C38.9222 10.175 38.1802 10.672 37.1442 10.91L40.2942 17H39.0972L36.0522 11.099H31.3272V17H30.2772ZM31.3272 10.133H35.6112C36.4512 10.133 37.1092 9.986 37.5852 9.692C38.0752 9.384 38.4252 8.971 38.6352 8.453C38.8592 7.921 38.9712 7.312 38.9712 6.626C38.9712 5.478 38.6982 4.638 38.1522 4.106C37.6062 3.574 36.7522 3.308 35.5902 3.308H31.3272V10.133ZM48.6367 17L44.6257 2.363H45.6967L49.4137 16.034H50.6947L54.4117 2.363H55.4827L51.4717 17H48.6367ZM60.6747 17V2.363H61.7247V17H60.6747ZM72.9496 17.189C71.8576 17.189 70.9686 17.021 70.2826 16.685C69.5966 16.349 69.0646 15.866 68.6866 15.236C68.3086 14.592 68.0426 13.808 67.8886 12.884C67.7486 11.96 67.6786 10.91 67.6786 9.734C67.6786 8.558 67.7486 7.508 67.8886 6.584C68.0286 5.646 68.2806 4.848 68.6446 4.19C69.0226 3.532 69.5546 3.028 70.2406 2.678C70.9266 2.328 71.8296 2.153 72.9496 2.153C73.4396 2.153 73.9226 2.181 74.3986 2.237C74.8886 2.279 75.3436 2.328 75.7636 2.384C76.1836 2.44 76.5546 2.503 76.8766 2.573L76.8136 3.539C76.5056 3.469 76.1276 3.406 75.6796 3.35C75.2456 3.28 74.7906 3.224 74.3146 3.182C73.8526 3.14 73.4186 3.119 73.0126 3.119C72.0886 3.119 71.3396 3.266 70.7656 3.56C70.2056 3.854 69.7786 4.288 69.4846 4.862C69.2046 5.436 69.0156 6.129 68.9176 6.941C68.8196 7.753 68.7706 8.684 68.7706 9.734C68.7706 10.77 68.8196 11.694 68.9176 12.506C69.0296 13.304 69.2256 13.983 69.5056 14.543C69.7996 15.089 70.2266 15.509 70.7866 15.803C71.3466 16.083 72.0886 16.223 73.0126 16.223C73.6426 16.223 74.3006 16.181 74.9866 16.097C75.6726 16.013 76.2816 15.922 76.8136 15.824L76.8766 16.769C76.5266 16.839 76.1346 16.909 75.7006 16.979C75.2806 17.035 74.8326 17.084 74.3566 17.126C73.8806 17.168 73.4116 17.189 72.9496 17.189ZM82.3769 17V2.363H91.0709V3.329H83.4269V9.062H89.8109V10.007H83.4269V16.034H91.0709V17H82.3769ZM100.579 17.168C100.187 17.168 99.7108 17.147 99.1508 17.105C98.6048 17.063 98.0518 17.014 97.4918 16.958C96.9458 16.888 96.4628 16.832 96.0428 16.79L96.1478 15.845C96.5678 15.887 97.0438 15.936 97.5758 15.992C98.1218 16.048 98.6608 16.097 99.1928 16.139C99.7248 16.181 100.173 16.202 100.537 16.202C101.685 16.202 102.546 15.943 103.12 15.425C103.708 14.893 104.002 14.025 104.002 12.821C104.002 12.163 103.883 11.652 103.645 11.288C103.407 10.91 103.029 10.63 102.511 10.448C102.007 10.252 101.335 10.084 100.495 9.944C99.5148 9.776 98.6818 9.573 97.9958 9.335C97.3238 9.083 96.8128 8.691 96.4628 8.159C96.1128 7.627 95.9378 6.871 95.9378 5.891C95.9378 4.967 96.1268 4.232 96.5048 3.686C96.8828 3.14 97.4148 2.748 98.1008 2.51C98.7868 2.258 99.5988 2.132 100.537 2.132C100.929 2.132 101.384 2.153 101.902 2.195C102.434 2.223 102.952 2.265 103.456 2.321C103.974 2.377 104.415 2.433 104.779 2.489L104.674 3.434C104.268 3.378 103.799 3.329 103.267 3.287C102.735 3.231 102.224 3.182 101.734 3.14C101.258 3.098 100.873 3.077 100.579 3.077C99.4308 3.077 98.5488 3.294 97.9328 3.728C97.3308 4.162 97.0298 4.862 97.0298 5.828C97.0298 6.612 97.1628 7.2 97.4288 7.592C97.7088 7.97 98.1288 8.25 98.6888 8.432C99.2488 8.614 99.9628 8.789 100.831 8.957C101.545 9.083 102.168 9.23 102.7 9.398C103.232 9.566 103.673 9.79 104.023 10.07C104.373 10.336 104.639 10.686 104.821 11.12C105.003 11.54 105.094 12.079 105.094 12.737C105.094 13.815 104.919 14.683 104.569 15.341C104.219 15.985 103.701 16.454 103.015 16.748C102.343 17.028 101.531 17.168 100.579 17.168Z" fill="black"/>
<path d="M59 29L54 34L49 29" stroke="#004C6D" stroke-width="1.5" stroke-linecap="round" stroke-linejoin="round"/>
</svg>
